<svg width="41" height="41" viewBox="0 0 41 41" fill="none" xmlns="http://www.w3.org/2000/svg">
<path d="M20.5 18.0267C19.1381 18.0267 18.0267 19.1381 18.0267 20.5C18.0267 21.8619 19.1381 22.9733 20.5 22.9733C21.8619 22.9733 22.9733 21.8619 22.9733 20.5C22.9733 19.1381 21.8619 18.0267 20.5 18.0267ZM27.9182 20.5C27.9182 19.4758 27.9274 18.4608 27.8699 17.4385C27.8124 16.251 27.5415 15.1971 26.6731 14.3287C25.8029 13.4585 24.7509 13.1895 23.5634 13.1319C22.5392 13.0744 21.5242 13.0837 20.5019 13.0837C19.4776 13.0837 18.4627 13.0744 17.4403 13.1319C16.2528 13.1895 15.1989 13.4604 14.3306 14.3287C13.4603 15.1989 13.1913 16.251 13.1338 17.4385C13.0763 18.4627 13.0855 19.4776 13.0855 20.5C13.0855 21.5224 13.0763 22.5392 13.1338 23.5615C13.1913 24.749 13.4622 25.8029 14.3306 26.6713C15.2008 27.5415 16.2528 27.8105 17.4403 27.8681C18.4645 27.9256 19.4795 27.9163 20.5019 27.9163C21.5261 27.9163 22.541 27.9256 23.5634 27.8681C24.7509 27.8105 25.8048 27.5397 26.6731 26.6713C27.5434 25.8011 27.8124 24.749 27.8699 23.5615C27.9293 22.5392 27.9182 21.5242 27.9182 20.5ZM20.5 24.3056C18.394 24.3056 16.6944 22.606 16.6944 20.5C16.6944 18.394 18.394 16.6944 20.5 16.6944C22.606 16.6944 24.3056 18.394 24.3056 20.5C24.3056 22.606 22.606 24.3056 20.5 24.3056ZM24.4614 17.4273C23.9697 17.4273 23.5727 17.0303 23.5727 16.5386C23.5727 16.0469 23.9697 15.6498 24.4614 15.6498C24.9531 15.6498 25.3502 16.0469 25.3502 16.5386C25.3503 16.6553 25.3274 16.771 25.2828 16.8789C25.2382 16.9868 25.1728 17.0848 25.0902 17.1674C25.0076 17.2499 24.9096 17.3154 24.8017 17.36C24.6938 17.4046 24.5782 17.4275 24.4614 17.4273Z" fill="#1F1B20"/>
<rect x="1.5" y="1.5" width="37" height="37" rx="18.5" stroke="#1F1B20"/>
</svg>
