<svg width="45" height="54" viewBox="0 0 45 54" fill="none" xmlns="http://www.w3.org/2000/svg">
<path fill-rule="evenodd" clip-rule="evenodd" d="M6.55136 6.46031C10.7458 2.32384 16.4347 0 22.3666 0C28.2985 0 33.9874 2.32384 38.1819 6.46031C42.3763 10.5968 44.7328 16.207 44.7328 22.0569C44.7328 27.9067 42.3763 33.517 38.1819 37.6534L22.3666 53.25L6.55136 37.6534C4.47434 35.6053 2.82674 33.1738 1.70265 30.4978C0.578563 27.8217 0 24.9535 0 22.0569C0 19.1603 0.578563 16.2921 1.70265 13.616C2.82674 10.9399 4.47434 8.5084 6.55136 6.46031Z" fill="white"/>
<circle cx="22.6338" cy="21.5" r="18.5" fill="#1F1B20"/>
<path d="M37.7762 20.7658L38.9455 22.5118C38.9818 22.5671 39 22.627 39 22.691C39 22.9045 38.8916 23.0122 38.6766 23.0122C38.5594 23.0122 38.4686 22.9656 38.4071 22.872L37.3837 21.3441L36.3614 22.872C36.2999 22.9662 36.2091 23.0122 36.0919 23.0122C36.0029 23.0122 35.9279 22.9808 35.8646 22.9179C35.8002 22.8539 35.7686 22.7789 35.7686 22.6904C35.7686 22.6264 35.7867 22.5665 35.8225 22.5112L36.9918 20.7652L35.8225 19.0192C35.7861 18.9639 35.7686 18.904 35.7686 18.84C35.7686 18.6259 35.8769 18.5188 36.0919 18.5188C36.2091 18.5188 36.2999 18.5654 36.3614 18.659L37.3837 20.1822L38.4071 18.659C38.4686 18.5648 38.5589 18.5188 38.6766 18.5188C38.8916 18.5188 39 18.6236 39 18.8342C39 18.9028 38.9818 18.9645 38.9455 19.0198L37.7762 20.7658ZM29.6783 21.0934V21.7304C29.6783 21.9038 29.7415 22.0533 29.8692 22.179C29.9958 22.3047 30.1475 22.3675 30.3239 22.3675H31.939C32.1557 22.3675 32.2624 22.4752 32.2624 22.6904C32.2624 22.9057 32.1557 23.0133 31.939 23.0133H30.3239C29.9624 23.0133 29.6554 22.8894 29.4041 22.641C29.1528 22.3931 29.028 22.0894 29.028 21.7293V20.1252C29.028 19.6795 29.1862 19.3014 29.5019 18.9889C29.8177 18.6765 30.2002 18.5194 30.6472 18.5194C31.1001 18.5194 31.4826 18.6748 31.7943 18.9843C32.1071 19.2955 32.2624 19.6766 32.2624 20.1281V21.0939H29.6783V21.0934ZM30.6478 19.1635C30.3801 19.1635 30.151 19.2577 29.963 19.4462C29.7732 19.6347 29.6783 19.8617 29.6783 20.1264V20.4475H31.6168V20.1264C31.6168 19.8617 31.5219 19.6347 31.3321 19.4462C31.1428 19.2577 30.9155 19.1635 30.6478 19.1635ZM22.3015 22.691V18.8406C22.3015 18.6265 22.4081 18.5194 22.6237 18.5194H24.2359C24.5974 18.5194 24.9026 18.6433 25.1527 18.8918C25.4011 19.1396 25.5259 19.4433 25.5259 19.8035V22.6916C25.5259 22.9051 25.4175 23.0128 25.2008 23.0128C24.984 23.0128 24.8756 22.9051 24.8756 22.6916V19.8064C24.8756 19.6254 24.8141 19.473 24.6905 19.3502C24.5687 19.2263 24.4163 19.1646 24.2347 19.1646H22.9524V22.691C22.9524 22.9045 22.844 23.0122 22.6272 23.0122C22.4099 23.0128 22.3015 22.9051 22.3015 22.691ZM13.3535 22.691V18.8406C13.3535 18.6265 13.4601 18.5194 13.6757 18.5194H15.2879C15.6494 18.5194 15.9546 18.6433 16.2048 18.8918C16.4532 19.1396 16.5779 19.4433 16.5779 19.8035V22.6916C16.5779 22.9051 16.4696 23.0128 16.2528 23.0128C16.036 23.0128 15.9277 22.9051 15.9277 22.6916V19.8064C15.9277 19.6254 15.8661 19.473 15.7425 19.3502C15.6207 19.2263 15.4684 19.1646 15.2868 19.1646H14.0044V22.691C14.0044 22.9045 13.896 23.0122 13.6792 23.0122C13.4619 23.0128 13.3535 22.9051 13.3535 22.691ZM9.19354 17.2412V16.9212C9.19354 16.7076 9.30192 16.6 9.51868 16.6C9.73544 16.6 9.84382 16.7076 9.84382 16.9212V17.2412C9.84382 17.4547 9.73544 17.5623 9.51868 17.5623C9.30192 17.5623 9.19354 17.4547 9.19354 17.2412ZM9.19354 18.8417C9.19354 18.6282 9.30192 18.5206 9.51868 18.5206C9.73544 18.5206 9.84382 18.6282 9.84382 18.8417V22.691C9.84382 22.9045 9.73544 23.0122 9.51868 23.0122C9.30192 23.0122 9.19354 22.9045 9.19354 22.691V18.8417Z" fill="white"/>
<path fill-rule="evenodd" clip-rule="evenodd" d="M6.4053 27H18.9012C19.1242 27 19.3065 26.822 19.3065 26.604V14.396C19.3065 14.178 19.1242 14 18.9012 14H6.4053C6.18221 14 6 14.178 6 14.396V26.604C6 26.822 6.18221 27 6.4053 27ZM18.66 14.6311V26.3695H6.64532V14.6311H18.66Z" fill="white"/>
<path fill-rule="evenodd" clip-rule="evenodd" d="M33.6275 25.175H34.9704V26.3994H33.6275V25.175ZM33.381 24.5733C33.1541 24.5733 32.9677 24.7427 32.9677 24.9502V26.6232C32.9677 26.83 33.1535 27 33.381 27H35.2157C35.4426 27 35.629 26.8306 35.629 26.6232V24.9502C35.629 24.7427 35.4432 24.5733 35.2157 24.5733H33.381Z" fill="white"/>
</svg>
