<svg width="110" height="30" viewBox="0 0 110 30" fill="none" xmlns="http://www.w3.org/2000/svg">
<g clip-path="url(#clip0_6_757)">
<path fill-rule="evenodd" clip-rule="evenodd" d="M9.8897 26.9653L19.8622 16.8637C20.2366 16.484 20.2374 15.8764 19.8622 15.4959C19.4866 15.1155 18.8879 15.1159 18.5119 15.4959L12.3154 21.773L7.18688 26.9653H9.8897ZM18.64 3.89961C14.6453 7.94656 10.6506 11.9931 6.65597 16.0397C5.75451 16.9528 7.13044 18.2828 8.00037 17.4015L18.64 6.62373V3.89961ZM5.06207 14.4251C9.05791 10.3777 13.0534 6.33038 17.0492 2.28264H14.332L3.70638 13.0522C2.73797 14.0335 2.25338 15.3201 2.25338 16.6059C2.25338 17.8912 2.73797 19.1778 3.70638 20.1584C4.67517 21.1401 5.94484 21.6306 7.21413 21.6306C8.48341 21.6306 9.75347 21.1401 10.7219 20.1584L16.9184 13.8817C18.1671 12.6165 20.207 12.6165 21.4557 13.8817C22.7063 15.1482 22.7071 17.2115 21.4557 18.4779L13.074 26.9653H15.7772L22.8059 19.8453C23.7743 18.8643 24.2589 17.5778 24.2589 16.2924C24.2589 15.0066 23.7743 13.7201 22.8059 12.7387C21.8371 11.7577 20.5675 11.2668 19.2982 11.2668C18.0289 11.2668 16.7588 11.7577 15.7908 12.7387L9.59388 19.0161C8.34718 20.279 6.30877 20.279 5.06207 19.0161C3.81381 17.7513 3.81303 15.6907 5.06207 14.4251ZM20.8936 0.00012207V7.56962L19.4944 8.98708C21.2747 9.03557 23.041 9.74805 24.3998 11.1245C25.8081 12.5514 26.5126 14.4219 26.5126 16.2924C26.5126 18.0166 25.8801 19.9056 24.6855 21.1603L24.5419 21.3109C21.8617 24.093 19.297 26.629 16.7114 29.2482H1.76489L7.01834 23.9108C5.23761 23.8619 3.47167 23.1494 2.11287 21.773C0.703851 20.3464 0.00012207 18.476 0.00012207 16.6059C0.00012207 14.735 0.703851 12.8649 2.11287 11.438L13.4103 0.00012207H20.8936Z" fill="white"/>
<path d="M32.0259 17.6447C32.6934 18.0492 33.3037 18.3286 33.8566 18.4828C34.4095 18.6371 34.9253 18.7142 35.4041 18.7142C36.193 18.7142 36.7881 18.5959 37.1893 18.3594C37.5905 18.1229 37.7911 17.8024 37.7911 17.3979C37.7911 17.1717 37.7287 16.9831 37.604 16.8323C37.4792 16.6815 37.2989 16.5546 37.0629 16.4518C36.8269 16.349 36.5302 16.2581 36.1728 16.1793L35.718 16.0822C35.4777 16.0324 35.218 15.9808 34.9388 15.9273C34.5882 15.8725 34.2106 15.7936 33.806 15.6908C33.4014 15.588 33.0255 15.4269 32.6782 15.2075C32.331 14.9881 32.0427 14.695 31.8135 14.3282C31.5842 13.9614 31.4696 13.4867 31.4696 12.9039C31.4696 12.4103 31.5572 11.9596 31.7325 11.5516C31.9079 11.1437 32.1776 10.7906 32.5417 10.4924C32.9058 10.1942 33.3677 9.96281 33.9274 9.79827C34.487 9.63373 35.1512 9.55147 35.9199 9.55147C36.7156 9.55147 37.459 9.64059 38.1502 9.81884C38.8413 9.99709 39.4971 10.2439 40.1174 10.5593L39.4499 12.5132C39.2004 12.4035 38.9374 12.2938 38.6609 12.1841C38.3845 12.0744 38.0996 11.9767 37.8063 11.891C37.5129 11.8053 37.2146 11.7367 36.9111 11.6853C36.6077 11.6339 36.3009 11.6082 35.9907 11.6082C35.6131 11.6082 35.2962 11.6442 35.04 11.7162C34.7837 11.7882 34.5764 11.8841 34.4179 12.0041C34.2595 12.1241 34.1465 12.2612 34.0791 12.4155C34.0117 12.5697 33.978 12.7257 33.978 12.8834C33.978 13.2467 34.1718 13.5175 34.5595 13.6958C34.9473 13.874 35.5592 14.0111 36.3953 14.1071C36.901 14.1894 37.3983 14.2905 37.8872 14.4105C38.376 14.5305 38.8127 14.7019 39.197 14.9247C39.5814 15.1475 39.8915 15.4423 40.1275 15.8091C40.3635 16.1759 40.4815 16.6506 40.4815 17.2334C40.4815 17.7887 40.3652 18.2874 40.1326 18.7296C39.9 19.1718 39.5712 19.5437 39.1464 19.8454C38.7216 20.1471 38.2142 20.3784 37.6242 20.5396C37.0342 20.7007 36.3818 20.7812 35.6671 20.7812C35.2557 20.7812 34.8647 20.7641 34.4938 20.7298C34.1229 20.6955 33.7605 20.639 33.4065 20.5601C33.0525 20.4813 32.7035 20.3733 32.3596 20.2362C32.0157 20.0991 31.6651 19.9277 31.3077 19.722L32.0259 17.6447ZM42.9165 6.86743L44.7169 6.85715V9.87026H48.0344V12.0298H44.7068V16.3592C44.7068 16.7843 44.7556 17.1357 44.8534 17.4133C44.9512 17.691 45.0827 17.9104 45.2479 18.0715C45.4131 18.2326 45.6069 18.3457 45.8295 18.4108C46.052 18.476 46.288 18.5085 46.5375 18.5085H48.3176L48.2974 20.5653H46.3048C45.7452 20.5653 45.2192 20.507 44.727 20.3904C44.2348 20.2739 43.8066 20.0597 43.4425 19.7477C43.0783 19.4358 42.7901 19.009 42.5777 18.4674C42.3653 17.9258 42.2591 17.2299 42.2591 16.3798V12.0298H40.5194V10.0965L42.1984 9.62345L42.9165 6.86743ZM56.9932 19.249C56.7235 19.4821 56.4234 19.6912 56.093 19.8763C55.7626 20.0614 55.417 20.2156 55.0563 20.339C54.6955 20.4624 54.3264 20.5567 53.9488 20.6218C53.5711 20.687 53.1969 20.7161 52.8261 20.7092C52.3271 20.7024 51.8568 20.6321 51.4151 20.4984C50.9734 20.3647 50.5874 20.1556 50.257 19.8711C49.9266 19.5866 49.6636 19.2215 49.4681 18.7759C49.2725 18.3303 49.1747 17.7887 49.1747 17.1511C49.1747 16.5683 49.313 16.0867 49.5894 15.7062C49.8659 15.3257 50.2384 15.0224 50.7071 14.7961C51.1757 14.5699 51.7253 14.4105 52.3557 14.3179C52.9862 14.2254 53.6554 14.1791 54.3634 14.1791C54.5657 14.1791 54.7844 14.1816 55.0195 14.1865L56.1373 14.2177C56.3404 14.2228 56.538 14.2271 56.7302 14.2305V13.2741C56.7302 13.0479 56.6763 12.8337 56.5684 12.6314C56.4605 12.4292 56.302 12.2526 56.093 12.1018C55.884 11.951 55.6244 11.831 55.3142 11.7419C55.004 11.6528 54.6467 11.6082 54.2421 11.6082C53.9251 11.6082 53.6234 11.6476 53.3368 11.7265C53.0503 11.8053 52.8008 11.9081 52.5884 12.035C52.376 12.1618 52.2074 12.3109 52.0826 12.4823C51.9579 12.6537 51.8955 12.832 51.8955 13.0171H49.4175C49.431 12.4617 49.5608 11.9681 49.8069 11.5362C50.053 11.1043 50.3885 10.7409 50.8133 10.4461C51.2381 10.1513 51.7387 9.92853 52.3153 9.77771C52.8918 9.62688 53.5138 9.55147 54.1814 9.55147C54.9771 9.55147 55.6867 9.63716 56.3105 9.80856C56.9342 9.97995 57.4601 10.2216 57.8883 10.5336C58.3165 10.8455 58.6419 11.2191 58.8644 11.6545C59.0869 12.0898 59.1981 12.568 59.1981 13.089V20.4521H57.1955L56.9932 19.249ZM53.706 18.7348C54.0162 18.7348 54.3314 18.6954 54.6517 18.6165C54.972 18.5377 55.2721 18.4314 55.5519 18.2977C55.8317 18.164 56.0745 18.0029 56.2801 17.8144C56.4858 17.6258 56.6358 17.4185 56.7302 17.1922V15.9685L56.0077 15.9501C55.923 15.9478 55.8368 15.9453 55.7491 15.9428C55.3985 15.9325 55.0411 15.9273 54.677 15.9273C54.2994 15.9273 53.9319 15.9462 53.5745 15.9839C53.2171 16.0216 52.9002 16.0884 52.6238 16.1844C52.3473 16.2804 52.1231 16.4141 51.9512 16.5855C51.7792 16.7569 51.6932 16.9797 51.6932 17.2539C51.6932 17.5282 51.7455 17.7595 51.85 17.9481C51.9545 18.1366 52.0978 18.2909 52.2799 18.4108C52.4619 18.5308 52.676 18.6148 52.9221 18.6628C53.1683 18.7108 53.4295 18.7348 53.706 18.7348ZM67.813 12.0607L66.5892 12.071C66.1104 12.071 65.6789 12.1412 65.2945 12.2818C64.9102 12.4223 64.5815 12.6314 64.3084 12.9091C64.0353 13.1867 63.8263 13.533 63.6813 13.9477C63.5363 14.3625 63.4638 14.8407 63.4638 15.3823V20.4521H61.006V9.87026H62.9986L63.2211 11.1351C63.5717 10.7718 64.0151 10.4701 64.5511 10.2302C65.0872 9.99023 65.7227 9.87026 66.4577 9.87026H67.813V12.0607ZM88.4211 9.87026L84.1325 20.4521H81.9073L79.6923 15.2075L77.7099 20.4521H75.4746L71.1962 9.87026H73.836L76.4152 16.5238L76.5669 17.1305H76.6074L76.7692 16.5238L78.4988 12.3692L77.4469 9.87026H80.0868L82.848 16.5238L82.9997 17.1305H83.0503L83.1919 16.5238L85.7711 9.87026H88.4211ZM96.1054 19.249C95.8357 19.4821 95.5356 19.6912 95.2052 19.8763C94.8748 20.0614 94.5293 20.2156 94.1685 20.339C93.8078 20.4624 93.4386 20.5567 93.061 20.6218C92.6834 20.687 92.3091 20.7161 91.9383 20.7092C91.4393 20.7024 90.969 20.6321 90.5273 20.4984C90.0856 20.3647 89.6996 20.1556 89.3692 19.8711C89.0388 19.5866 88.7758 19.2215 88.5803 18.7759C88.3847 18.3303 88.287 17.7887 88.287 17.1511C88.287 16.5683 88.4252 16.0867 88.7016 15.7062C88.9781 15.3257 89.3507 15.0224 89.8193 14.7961C90.2879 14.5699 90.8375 14.4105 91.4679 14.3179C92.0984 14.2254 92.7676 14.1791 93.4757 14.1791C93.678 14.1791 93.8966 14.1816 94.1317 14.1865L95.2495 14.2177C95.4526 14.2228 95.6503 14.2271 95.8424 14.2305V13.2741C95.8424 13.0479 95.7885 12.8337 95.6806 12.6314C95.5727 12.4292 95.4143 12.2526 95.2052 12.1018C94.9962 11.951 94.7366 11.831 94.4264 11.7419C94.1162 11.6528 93.7589 11.6082 93.3543 11.6082C93.0374 11.6082 92.7356 11.6476 92.449 11.7265C92.1625 11.8053 91.913 11.9081 91.7006 12.035C91.4882 12.1618 91.3196 12.3109 91.1949 12.4823C91.0701 12.6537 91.0077 12.832 91.0077 13.0171H88.5297C88.5432 12.4617 88.673 11.9681 88.9191 11.5362C89.1652 11.1043 89.5007 10.7409 89.9255 10.4461C90.3503 10.1513 90.851 9.92853 91.4275 9.77771C92.004 9.62688 92.626 9.55147 93.2936 9.55147C94.0893 9.55147 94.799 9.63716 95.4227 9.80856C96.0464 9.97995 96.5724 10.2216 97.0005 10.5336C97.4287 10.8455 97.7541 11.2191 97.9766 11.6545C98.1991 12.0898 98.3104 12.568 98.3104 13.089V20.4521H96.3077L96.1054 19.249ZM92.8182 18.7348C93.1284 18.7348 93.4436 18.6954 93.7639 18.6165C94.0842 18.5377 94.3843 18.4314 94.6641 18.2977C94.9439 18.164 95.1867 18.0029 95.3923 17.8144C95.598 17.6258 95.748 17.4185 95.8424 17.1922V15.9685L95.1199 15.9501C95.0352 15.9478 94.949 15.9453 94.8613 15.9428C94.5107 15.9325 94.1533 15.9273 93.7892 15.9273C93.4116 15.9273 93.0441 15.9462 92.6867 15.9839C92.3294 16.0216 92.0124 16.0884 91.736 16.1844C91.4595 16.2804 91.2353 16.4141 91.0634 16.5855C90.8914 16.7569 90.8055 16.9797 90.8055 17.2539C90.8055 17.5282 90.8577 17.7595 90.9622 17.9481C91.0667 18.1366 91.21 18.2909 91.3921 18.4108C91.5742 18.5308 91.7882 18.6148 92.0344 18.6628C92.2805 18.7108 92.5418 18.7348 92.8182 18.7348ZM110 9.87026L105.55 20.2156C105.226 21.004 104.924 21.645 104.644 22.1387C104.365 22.6323 104.065 23.0162 103.744 23.2904C103.424 23.5647 103.063 23.7515 102.662 23.8509C102.261 23.9503 101.78 24 101.221 24H99.5923L99.5822 21.9433H101.362C101.578 21.9433 101.764 21.8936 101.919 21.7942C102.074 21.6947 102.214 21.5542 102.338 21.3725C102.463 21.1909 102.579 20.9715 102.687 20.7144L102.947 20.0868C102.978 20.0116 103.009 19.9345 103.041 19.8557L98.7933 9.87026H101.514L104.285 16.5958L104.407 17.1305L107.36 9.88054L110 9.87026Z" fill="white"/>
</g>
<defs>
<clipPath id="clip0_6_757">
<rect width="110" height="30" fill="white"/>
</clipPath>
</defs>
</svg>
