<svg width="186" height="75" viewBox="0 0 186 75" fill="none" xmlns="http://www.w3.org/2000/svg">
<path d="M179.102 39.0334L185.693 49.1066C185.898 49.4255 186 49.7712 186 50.1404C186 51.3723 185.389 51.9933 184.177 51.9933C183.517 51.9933 183.005 51.7248 182.658 51.1843L176.89 42.3699L171.128 51.1843C170.781 51.7281 170.269 51.9933 169.609 51.9933C169.107 51.9933 168.685 51.812 168.328 51.4495C167.965 51.0803 167.786 50.6473 167.786 50.1371C167.786 49.7678 167.889 49.4221 168.09 49.1032L174.681 39.03L168.09 28.9568C167.885 28.6379 167.786 28.2922 167.786 27.923C167.786 26.6877 168.397 26.0701 169.609 26.0701C170.269 26.0701 170.781 26.3387 171.128 26.8791L176.89 35.6667L182.658 26.8791C183.005 26.3353 183.514 26.0701 184.177 26.0701C185.389 26.0701 186 26.6743 186 27.8894C186 28.2855 185.898 28.6413 185.693 28.9602L179.102 39.0334ZM133.459 40.9232V44.5987C133.459 45.5989 133.816 46.4616 134.536 47.1866C135.249 47.9116 136.104 48.2742 137.098 48.2742H146.202C147.423 48.2742 148.024 48.8951 148.024 50.1371C148.024 51.379 147.423 52 146.202 52H137.098C135.061 52 133.331 51.285 131.914 49.8518C130.498 48.4218 129.794 46.6697 129.794 44.5919V35.3377C129.794 32.7666 130.686 30.5848 132.465 28.7823C134.245 26.9798 136.401 26.0735 138.921 26.0735C141.473 26.0735 143.629 26.9697 145.386 28.7554C147.149 30.5512 148.024 32.7498 148.024 35.3545V40.9265H133.459V40.9232ZM138.924 29.7893C137.415 29.7893 136.124 30.333 135.064 31.4206C133.994 32.5081 133.459 33.8172 133.459 35.3445V37.1973H144.385V35.3445C144.385 33.8172 143.851 32.5081 142.781 31.4206C141.714 30.333 140.433 29.7893 138.924 29.7893ZM91.8812 50.1404V27.9263C91.8812 26.6911 92.4821 26.0735 93.6972 26.0735H102.784C104.822 26.0735 106.542 26.7884 107.952 28.2217C109.352 29.6516 110.055 31.4038 110.055 33.4815V50.1438C110.055 51.3757 109.444 51.9966 108.223 51.9966C107.001 51.9966 106.39 51.3757 106.39 50.1438V33.4983C106.39 32.4544 106.043 31.575 105.347 30.8667C104.66 30.1518 103.801 29.796 102.778 29.796H95.5497V50.1404C95.5497 51.3723 94.9388 51.9933 93.7171 51.9933C92.492 51.9966 91.8812 51.3757 91.8812 50.1404ZM41.4472 50.1404V27.9263C41.4472 26.6911 42.0481 26.0735 43.2632 26.0735H52.3502C54.3875 26.0735 56.1078 26.7884 57.5178 28.2217C58.9178 29.6516 59.6211 31.4038 59.6211 33.4815V50.1438C59.6211 51.3757 59.0102 51.9966 57.7885 51.9966C56.5668 51.9966 55.956 51.3757 55.956 50.1438V33.4983C55.956 32.4544 55.6092 31.575 54.9125 30.8667C54.2257 30.1518 53.3672 29.796 52.3436 29.796H45.1156V50.1404C45.1156 51.3723 44.5048 51.9933 43.2831 51.9933C42.058 51.9966 41.4472 51.3757 41.4472 50.1404ZM18 18.699V16.8529C18 15.621 18.6109 15 19.8326 15C21.0543 15 21.6652 15.621 21.6652 16.8529V18.699C21.6652 19.9309 21.0543 20.5518 19.8326 20.5518C18.6109 20.5518 18 19.9309 18 18.699ZM18 27.933C18 26.7012 18.6109 26.0802 19.8326 26.0802C21.0543 26.0802 21.6652 26.7012 21.6652 27.933V50.1404C21.6652 51.3723 21.0543 51.9933 19.8326 51.9933C18.6109 51.9933 18 51.3723 18 50.1404V27.933Z" fill="white"/>
<path fill-rule="evenodd" clip-rule="evenodd" d="M2.28442 75H72.7156C73.973 75 75 73.973 75 72.7155V2.2845C75 1.02704 73.973 0 72.7156 0H2.28442C1.02701 0 0 1.02704 0 2.2845V72.7155C0 73.973 1.02701 75 2.28442 75ZM71.3562 3.64071V71.3626H3.63728V3.64071H71.3562Z" fill="white"/>
<path fill-rule="evenodd" clip-rule="evenodd" d="M155.719 64.471H163.288V71.5352H155.719V64.471ZM154.329 61C153.051 61 152 61.9774 152 63.1741V72.8259C152 74.0195 153.047 75 154.329 75H164.671C165.949 75 167 74.0226 167 72.8259V63.1741C167 61.9774 165.953 61 164.671 61H154.329Z" fill="white"/>
</svg>
